<svg width="226" height="50" viewBox="0 0 226 50" fill="none" xmlns="http://www.w3.org/2000/svg">
<path d="M31.8786 47.6394C29.8265 46.7735 30.7636 47.4971 28.1539 46.2278C25.7459 45.0534 22.6617 42.6098 21.0603 41.2457C22.2228 40.4153 23.7886 38.9325 24.6664 36.6075C25.8289 33.5352 25.4612 29.9291 23.5869 25.8959C23.4327 25.5638 23.1362 25.3265 22.7803 25.2435C22.4244 25.1605 22.0448 25.2554 21.7601 25.4807C21.5229 25.6705 16.4814 29.8579 15.5087 34.6384C14.7496 33.3217 13.3261 29.6207 13.2431 29.3478C14.3225 29.075 16.9085 28.1735 18.7234 25.5875C20.5383 23.0015 21.0484 19.5496 20.2418 15.3029C20.1825 14.9708 19.9808 14.6861 19.6961 14.5082C19.4114 14.3302 19.0674 14.2946 18.7471 14.3895C18.6997 14.4014 14.6902 16.1926 12.0924 19.2412C12.2229 16.4654 12.6855 14.2235 12.9821 13.0017C13.9192 12.7051 16.0425 11.8036 17.4542 9.57347C18.8658 7.31964 19.1505 4.40153 18.2845 0.902166C18.2015 0.546299 17.9524 0.249743 17.6202 0.107396C17.2881 -0.0468135 16.9085 -0.0349513 16.5882 0.142982C16.3154 0.273467 10.5859 3.33393 9.77928 7.65178C9.49458 9.17015 9.82673 10.6292 10.7757 12.0052C10.6571 12.4679 10.5029 13.1203 10.3368 13.9269C9.16244 12.3136 7.18145 10.6885 3.8956 9.52602C3.53974 9.39553 3.14828 9.45485 2.83986 9.6565C2.53145 9.87002 2.32979 10.2022 2.31793 10.5818C2.30606 10.8665 1.99764 17.6398 5.42583 20.807C6.57647 21.8746 7.99994 22.4084 9.63693 22.4084C9.66066 22.4084 9.67252 22.4084 9.69624 22.4084C9.74369 23.4879 9.85045 24.6504 10.0284 25.8485C7.7627 24.342 4.76155 23.7489 1.08425 24.0691C0.716522 24.1047 0.396242 24.2945 0.194583 24.6029C-0.00707475 24.9114 -0.0545237 25.2791 0.0640987 25.6349C0.170859 25.9434 2.61448 33.1437 7.39497 34.8638C8.09484 35.1129 8.79471 35.2434 9.50645 35.2434C10.5622 35.2434 11.6179 34.9705 12.6855 34.4249C13.0058 35.0773 14.6191 37.7226 15.1054 38.375C12.3652 37.9835 8.81844 38.5292 4.41754 41.1982C4.10912 41.388 3.90747 41.7083 3.86002 42.0642C3.81257 42.42 3.93119 42.7878 4.19216 43.0369C4.45313 43.2978 10.3012 49.2171 16.0781 49.2171C16.3628 49.2171 16.6594 49.2052 16.9441 49.1696C19.2809 48.9205 21.2145 47.6631 22.7091 45.4568C24.5122 46.7853 25.4374 47.758 27.454 48.5647C29.4706 49.3713 28.8894 49.3713 31.333 49.9644C31.4279 49.9881 31.5228 50 31.6177 50C32.1515 50 32.6378 49.6323 32.7683 49.0985C32.8988 48.4342 32.4836 47.9004 31.8786 47.6394ZM9.63693 20.0241C8.59305 20.0241 7.73897 19.7038 7.02724 19.0514C5.40211 17.5568 4.84458 14.5319 4.70224 12.4204C9.67252 14.8047 9.82673 18.4464 9.63693 20.0241ZM8.2016 32.6099C5.7817 31.744 3.8956 28.5412 2.91104 26.3467C2.9229 26.3467 2.94662 26.3467 2.95849 26.3467C5.92405 26.3467 8.2016 27.1177 9.75555 28.648C10.5147 29.3953 10.9774 30.2256 11.2621 30.9374C11.3214 31.1153 11.5942 32.0524 11.6298 32.2778C10.4198 32.8946 9.29293 33.0014 8.2016 32.6099ZM12.1043 8.09069C12.472 6.10969 14.6309 4.23546 16.2679 3.10854C16.5526 5.20816 16.2798 6.95191 15.4376 8.30421C14.6191 9.62092 13.421 10.2852 12.6855 10.5936C12.6855 10.5936 12.6737 10.5936 12.6737 10.5818C12.1399 9.76326 11.9501 8.94477 12.1043 8.09069ZM12.389 23.4997C12.899 20.8782 16.0544 18.6125 18.154 17.367C18.4506 20.1902 17.9998 22.4796 16.8136 24.1996C15.6392 25.8841 13.9785 26.6314 13.0651 26.9279C12.6618 26.3111 12.128 24.852 12.389 23.4997ZM16.6831 46.7972C13.0888 47.1886 8.98451 44.1163 7.02724 42.42C10.4792 40.617 13.5277 40.2967 16.2323 41.044C18.415 41.649 20.3011 43.9621 20.5621 44.3536C19.4945 45.8245 18.2252 46.6311 16.6831 46.7972ZM19.2809 39.5849C19.2335 39.5375 17.7863 38.1378 17.7151 36.2635C17.6084 33.2505 20.4197 30.0477 22.0686 28.4226C23.1006 31.2102 23.2311 33.6657 22.46 35.7416C21.689 37.8175 20.1469 39.0393 19.2809 39.5849Z" fill="#EEB36D"/>
<path d="M57.4227 29.5V27.834C57.9734 27.2927 58.482 26.7887 58.9487 26.322C59.1447 26.126 59.3454 25.9253 59.5507 25.72C59.756 25.5147 59.9474 25.3233 60.1247 25.146C60.302 24.9687 60.4607 24.81 60.6007 24.67C60.7407 24.5207 60.848 24.404 60.9227 24.32C61.072 24.1427 61.2027 23.984 61.3147 23.844C61.436 23.704 61.5294 23.5687 61.5947 23.438C61.6694 23.298 61.7254 23.1627 61.7627 23.032C61.8 22.892 61.8187 22.7427 61.8187 22.584C61.8187 22.276 61.6974 22.01 61.4547 21.786C61.212 21.5527 60.8807 21.436 60.4607 21.436C60.0407 21.436 59.714 21.5573 59.4807 21.8C59.2474 22.0333 59.0887 22.2993 59.0047 22.598L57.3387 21.912C57.4134 21.66 57.5347 21.4033 57.7027 21.142C57.8707 20.8713 58.0854 20.6333 58.3467 20.428C58.608 20.2133 58.916 20.0407 59.2707 19.91C59.6347 19.77 60.0407 19.7 60.4887 19.7C60.974 19.7 61.4127 19.7747 61.8047 19.924C62.1967 20.064 62.528 20.26 62.7987 20.512C63.0694 20.764 63.2794 21.0627 63.4287 21.408C63.578 21.744 63.6527 22.108 63.6527 22.5C63.6527 23.0973 63.5034 23.648 63.2047 24.152C62.9154 24.6467 62.5607 25.1087 62.1407 25.538L60.9367 26.742C60.6194 27.0593 60.26 27.414 59.8587 27.806L59.9147 27.89H63.7927V29.5H57.4227ZM68.4918 19.476H70.3538L73.4198 24.782H73.5318L76.5978 19.476H78.4738V29.5H76.5978V24.558L76.7098 22.878H76.5978L74.0498 27.372H72.9158L70.3538 22.878H70.2418L70.3538 24.558V29.5H68.4918V19.476ZM80.4957 19.476H82.3857V29.5H80.4957V19.476ZM84.4058 19.476H86.2958V27.708H90.5378V29.5H84.4058V19.476ZM91.8843 19.476H93.7743V27.708H98.0163V29.5H91.8843V19.476ZM99.3629 19.476H101.253V29.5H99.3629V19.476ZM107.882 29.724C107.136 29.724 106.44 29.5887 105.796 29.318C105.162 29.0473 104.611 28.6787 104.144 28.212C103.678 27.736 103.309 27.1807 103.038 26.546C102.777 25.902 102.646 25.216 102.646 24.488C102.646 23.76 102.777 23.0787 103.038 22.444C103.309 21.8 103.678 21.2447 104.144 20.778C104.611 20.302 105.162 19.9287 105.796 19.658C106.44 19.3873 107.136 19.252 107.882 19.252C108.629 19.252 109.32 19.3873 109.954 19.658C110.598 19.9287 111.154 20.302 111.62 20.778C112.087 21.2447 112.451 21.8 112.712 22.444C112.983 23.0787 113.118 23.76 113.118 24.488C113.118 25.216 112.983 25.902 112.712 26.546C112.451 27.1807 112.087 27.736 111.62 28.212C111.154 28.6787 110.598 29.0473 109.954 29.318C109.32 29.5887 108.629 29.724 107.882 29.724ZM107.882 27.932C108.349 27.932 108.783 27.848 109.184 27.68C109.595 27.512 109.95 27.2787 110.248 26.98C110.556 26.6813 110.794 26.322 110.962 25.902C111.14 25.4727 111.228 25.0013 111.228 24.488C111.228 23.9747 111.14 23.508 110.962 23.088C110.794 22.6587 110.556 22.2947 110.248 21.996C109.95 21.6973 109.595 21.464 109.184 21.296C108.783 21.128 108.349 21.044 107.882 21.044C107.416 21.044 106.977 21.128 106.566 21.296C106.165 21.464 105.81 21.6973 105.502 21.996C105.204 22.2947 104.966 22.6587 104.788 23.088C104.62 23.508 104.536 23.9747 104.536 24.488C104.536 25.0013 104.62 25.4727 104.788 25.902C104.966 26.322 105.204 26.6813 105.502 26.98C105.81 27.2787 106.165 27.512 106.566 27.68C106.977 27.848 107.416 27.932 107.882 27.932ZM114.648 19.476H116.846L120.878 26.196H120.99L120.878 24.264V19.476H122.754V29.5H120.766L116.51 22.402H116.398L116.51 24.334V29.5H114.648V19.476ZM131.236 29.724C130.648 29.724 130.111 29.6307 129.626 29.444C129.15 29.248 128.744 28.968 128.408 28.604C128.072 28.24 127.811 27.8013 127.624 27.288C127.437 26.7653 127.344 26.1727 127.344 25.51V19.476H129.234V25.622C129.234 25.958 129.276 26.266 129.36 26.546C129.444 26.826 129.57 27.0687 129.738 27.274C129.906 27.4793 130.116 27.6427 130.368 27.764C130.62 27.876 130.909 27.932 131.236 27.932C131.572 27.932 131.866 27.876 132.118 27.764C132.37 27.6427 132.58 27.4793 132.748 27.274C132.916 27.0687 133.042 26.826 133.126 26.546C133.21 26.266 133.252 25.958 133.252 25.622V19.476H135.142V25.51C135.142 26.1353 135.049 26.7093 134.862 27.232C134.685 27.7453 134.423 28.1887 134.078 28.562C133.742 28.926 133.331 29.2107 132.846 29.416C132.37 29.6213 131.833 29.724 131.236 29.724ZM139.999 29.724C139.57 29.724 139.159 29.6633 138.767 29.542C138.375 29.4207 138.016 29.2387 137.689 28.996C137.363 28.7533 137.078 28.4593 136.835 28.114C136.593 27.7593 136.401 27.3487 136.261 26.882L138.039 26.182C138.17 26.686 138.399 27.106 138.725 27.442C139.052 27.7687 139.481 27.932 140.013 27.932C140.209 27.932 140.396 27.9087 140.573 27.862C140.76 27.806 140.923 27.7313 141.063 27.638C141.213 27.5353 141.329 27.4093 141.413 27.26C141.497 27.1107 141.539 26.938 141.539 26.742C141.539 26.5553 141.507 26.3873 141.441 26.238C141.376 26.0887 141.264 25.9487 141.105 25.818C140.956 25.6873 140.755 25.5613 140.503 25.44C140.261 25.3187 139.957 25.1927 139.593 25.062L138.977 24.838C138.707 24.7447 138.431 24.6187 138.151 24.46C137.881 24.3013 137.633 24.11 137.409 23.886C137.185 23.662 136.999 23.4007 136.849 23.102C136.709 22.794 136.639 22.4487 136.639 22.066C136.639 21.674 136.714 21.31 136.863 20.974C137.022 20.6287 137.241 20.33 137.521 20.078C137.811 19.8167 138.151 19.616 138.543 19.476C138.945 19.3267 139.388 19.252 139.873 19.252C140.377 19.252 140.811 19.322 141.175 19.462C141.549 19.5927 141.861 19.7653 142.113 19.98C142.375 20.1853 142.585 20.414 142.743 20.666C142.902 20.918 143.019 21.156 143.093 21.38L141.427 22.08C141.334 21.8 141.161 21.548 140.909 21.324C140.667 21.1 140.331 20.988 139.901 20.988C139.491 20.988 139.15 21.086 138.879 21.282C138.609 21.4687 138.473 21.716 138.473 22.024C138.473 22.3227 138.604 22.5793 138.865 22.794C139.127 22.9993 139.542 23.2 140.111 23.396L140.741 23.606C141.143 23.746 141.507 23.9093 141.833 24.096C142.169 24.2733 142.454 24.488 142.687 24.74C142.93 24.992 143.112 25.2813 143.233 25.608C143.364 25.9253 143.429 26.294 143.429 26.714C143.429 27.2367 143.322 27.6893 143.107 28.072C142.902 28.4453 142.636 28.7533 142.309 28.996C141.983 29.2387 141.614 29.4207 141.203 29.542C140.793 29.6633 140.391 29.724 139.999 29.724ZM146.876 21.268V23.592H150.894V25.384H146.876V27.708H151.342V29.5H144.986V19.476H151.342V21.268H146.876ZM153.08 19.476H156.734C157.238 19.476 157.695 19.5553 158.106 19.714C158.516 19.8727 158.866 20.092 159.156 20.372C159.454 20.652 159.683 20.988 159.842 21.38C160 21.7627 160.08 22.1827 160.08 22.64C160.08 22.976 160.024 23.2933 159.912 23.592C159.8 23.8813 159.646 24.1473 159.45 24.39C159.254 24.6233 159.025 24.8333 158.764 25.02C158.502 25.1973 158.227 25.3373 157.938 25.44L157.924 25.538L160.612 29.388V29.5H158.442L155.852 25.734H154.97V29.5H153.08V19.476ZM156.72 23.998C157.149 23.998 157.499 23.8673 157.77 23.606C158.05 23.3447 158.19 23.0133 158.19 22.612C158.19 22.4347 158.157 22.262 158.092 22.094C158.036 21.926 157.947 21.7767 157.826 21.646C157.704 21.5153 157.55 21.4127 157.364 21.338C157.186 21.254 156.981 21.212 156.748 21.212H154.97V23.998H156.72ZM164.827 29.724C164.398 29.724 163.987 29.6633 163.595 29.542C163.203 29.4207 162.844 29.2387 162.517 28.996C162.191 28.7533 161.906 28.4593 161.663 28.114C161.421 27.7593 161.229 27.3487 161.089 26.882L162.867 26.182C162.998 26.686 163.227 27.106 163.553 27.442C163.88 27.7687 164.309 27.932 164.841 27.932C165.037 27.932 165.224 27.9087 165.401 27.862C165.588 27.806 165.751 27.7313 165.891 27.638C166.041 27.5353 166.157 27.4093 166.241 27.26C166.325 27.1107 166.367 26.938 166.367 26.742C166.367 26.5553 166.335 26.3873 166.269 26.238C166.204 26.0887 166.092 25.9487 165.933 25.818C165.784 25.6873 165.583 25.5613 165.331 25.44C165.089 25.3187 164.785 25.1927 164.421 25.062L163.805 24.838C163.535 24.7447 163.259 24.6187 162.979 24.46C162.709 24.3013 162.461 24.11 162.237 23.886C162.013 23.662 161.827 23.4007 161.677 23.102C161.537 22.794 161.467 22.4487 161.467 22.066C161.467 21.674 161.542 21.31 161.691 20.974C161.85 20.6287 162.069 20.33 162.349 20.078C162.639 19.8167 162.979 19.616 163.371 19.476C163.773 19.3267 164.216 19.252 164.701 19.252C165.205 19.252 165.639 19.322 166.003 19.462C166.377 19.5927 166.689 19.7653 166.941 19.98C167.203 20.1853 167.413 20.414 167.571 20.666C167.73 20.918 167.847 21.156 167.921 21.38L166.255 22.08C166.162 21.8 165.989 21.548 165.737 21.324C165.495 21.1 165.159 20.988 164.729 20.988C164.319 20.988 163.978 21.086 163.707 21.282C163.437 21.4687 163.301 21.716 163.301 22.024C163.301 22.3227 163.432 22.5793 163.693 22.794C163.955 22.9993 164.37 23.2 164.939 23.396L165.569 23.606C165.971 23.746 166.335 23.9093 166.661 24.096C166.997 24.2733 167.282 24.488 167.515 24.74C167.758 24.992 167.94 25.2813 168.061 25.608C168.192 25.9253 168.257 26.294 168.257 26.714C168.257 27.2367 168.15 27.6893 167.935 28.072C167.73 28.4453 167.464 28.7533 167.137 28.996C166.811 29.2387 166.442 29.4207 166.031 29.542C165.621 29.6633 165.219 29.724 164.827 29.724Z" fill="#EEB36D"/>
<path d="M193.706 47.6394C195.758 46.7735 194.821 47.4971 197.431 46.2278C199.839 45.0534 202.923 42.6098 204.524 41.2457C203.362 40.4153 201.796 38.9325 200.918 36.6075C199.756 33.5352 200.124 29.9291 201.998 25.8959C202.152 25.5638 202.449 25.3265 202.804 25.2435C203.16 25.1605 203.54 25.2554 203.825 25.4807C204.062 25.6705 209.103 29.8579 210.076 34.6384C210.835 33.3217 212.259 29.6207 212.342 29.3478C211.262 29.075 208.676 28.1735 206.861 25.5875C205.046 23.0015 204.536 19.5496 205.343 15.3029C205.402 14.9708 205.604 14.6861 205.889 14.5082C206.173 14.3302 206.517 14.2946 206.838 14.3895C206.885 14.4014 210.894 16.1926 213.492 19.2412C213.362 16.4654 212.899 14.2235 212.603 13.0017C211.666 12.7051 209.542 11.8036 208.131 9.57347C206.719 7.31964 206.434 4.40153 207.3 0.902166C207.383 0.546299 207.632 0.249743 207.964 0.107396C208.297 -0.0468135 208.676 -0.0349513 208.997 0.142982C209.269 0.273467 214.999 3.33393 215.805 7.65178C216.09 9.17015 215.758 10.6292 214.809 12.0052C214.928 12.4679 215.082 13.1203 215.248 13.9269C216.422 12.3136 218.403 10.6885 221.689 9.52602C222.045 9.39553 222.436 9.45485 222.745 9.6565C223.053 9.87002 223.255 10.2022 223.267 10.5818C223.279 10.8665 223.587 17.6398 220.159 20.807C219.008 21.8746 217.585 22.4084 215.948 22.4084C215.924 22.4084 215.912 22.4084 215.888 22.4084C215.841 23.4879 215.734 24.6504 215.556 25.8485C217.822 24.342 220.823 23.7489 224.5 24.0691C224.868 24.1047 225.188 24.2945 225.39 24.6029C225.592 24.9114 225.639 25.2791 225.521 25.6349C225.414 25.9434 222.97 33.1437 218.19 34.8638C217.49 35.1129 216.79 35.2434 216.078 35.2434C215.023 35.2434 213.967 34.9705 212.899 34.4249C212.579 35.0773 210.966 37.7226 210.479 38.375C213.219 37.9835 216.766 38.5292 221.167 41.1982C221.476 41.388 221.677 41.7083 221.725 42.0642C221.772 42.42 221.654 42.7878 221.393 43.0369C221.132 43.2978 215.283 49.2171 209.507 49.2171C209.222 49.2171 208.925 49.2052 208.641 49.1696C206.304 48.9205 204.37 47.6631 202.876 45.4568C201.073 46.7853 200.147 47.758 198.131 48.5647C196.114 49.3713 196.695 49.3713 194.252 49.9644C194.157 49.9881 194.062 50 193.967 50C193.433 50 192.947 49.6323 192.816 49.0985C192.686 48.4342 193.101 47.9004 193.706 47.6394ZM215.948 20.0241C216.992 20.0241 217.846 19.7038 218.557 19.0514C220.183 17.5568 220.74 14.5319 220.882 12.4204C215.912 14.8047 215.758 18.4464 215.948 20.0241ZM217.383 32.6099C219.803 31.744 221.689 28.5412 222.674 26.3467C222.662 26.3467 222.638 26.3467 222.626 26.3467C219.661 26.3467 217.383 27.1177 215.829 28.648C215.07 29.3953 214.607 30.2256 214.323 30.9374C214.263 31.1153 213.991 32.0524 213.955 32.2778C215.165 32.8946 216.292 33.0014 217.383 32.6099ZM213.48 8.09069C213.113 6.10969 210.954 4.23546 209.317 3.10854C209.032 5.20816 209.305 6.95191 210.147 8.30421C210.966 9.62092 212.164 10.2852 212.899 10.5936C212.899 10.5936 212.911 10.5936 212.911 10.5818C213.445 9.76326 213.635 8.94477 213.48 8.09069ZM213.196 23.4997C212.686 20.8782 209.53 18.6125 207.431 17.367C207.134 20.1902 207.585 22.4796 208.771 24.1996C209.945 25.8841 211.606 26.6314 212.52 26.9279C212.923 26.3111 213.457 24.852 213.196 23.4997ZM208.902 46.7972C212.496 47.1886 216.6 44.1163 218.557 42.42C215.106 40.617 212.057 40.2967 209.352 41.044C207.17 41.649 205.284 43.9621 205.023 44.3536C206.09 45.8245 207.36 46.6311 208.902 46.7972ZM206.304 39.5849C206.351 39.5375 207.798 38.1378 207.87 36.2635C207.976 33.2505 205.165 30.0477 203.516 28.4226C202.484 31.2102 202.354 33.6657 203.125 35.7416C203.896 37.8175 205.438 39.0393 206.304 39.5849Z" fill="#EEB36D"/>
</svg>
