<svg width="60" height="62" viewBox="0 0 60 62" fill="none" xmlns="http://www.w3.org/2000/svg">
<circle opacity="0.2" cx="24.0161" cy="24.0161" r="24.0161" fill="#908F9D"/>
<path d="M49.4273 42.9737C48.4125 41.917 47.1884 41.352 45.8911 41.352C44.6043 41.352 43.3698 41.9065 42.3131 42.9632L39.0071 46.2587C38.7351 46.1123 38.4631 45.9763 38.2015 45.8403C37.8249 45.6519 37.4692 45.4741 37.1658 45.2858C34.069 43.3189 31.2547 40.7557 28.5555 37.4392C27.2477 35.7862 26.3689 34.3948 25.7307 32.9824C26.5886 32.1977 27.3837 31.3817 28.1579 30.597C28.4509 30.3041 28.7438 30.0007 29.0367 29.7078C31.2338 27.5107 31.2338 24.6651 29.0367 22.468L26.1806 19.6119C25.8563 19.2876 25.5215 18.9528 25.2076 18.618C24.5799 17.9693 23.9208 17.2998 23.2408 16.672C22.2259 15.6677 21.0123 15.1341 19.736 15.1341C18.4596 15.1341 17.2251 15.6677 16.1789 16.672C16.1684 16.6825 16.1684 16.6825 16.158 16.693L12.6009 20.2815C11.2617 21.6206 10.498 23.2527 10.3306 25.1463C10.0795 28.2012 10.9792 31.0469 11.6697 32.9092C13.3646 37.4811 15.8964 41.7182 19.6732 46.2587C24.2556 51.7304 29.7691 56.0512 36.0672 59.0957C38.4735 60.236 41.6854 61.5856 45.2739 61.8158C45.4936 61.8263 45.7237 61.8367 45.933 61.8367C48.3497 61.8367 50.3793 60.9684 51.9696 59.2421C51.98 59.2212 52.001 59.2108 52.0114 59.1898C52.5554 58.5307 53.1832 57.9344 53.8423 57.2962C54.2921 56.8673 54.7525 56.4174 55.2023 55.9466C56.2381 54.869 56.7821 53.6136 56.7821 52.3267C56.7821 51.0294 56.2276 49.7844 55.171 48.7382L49.4273 42.9737ZM53.1727 53.9902C53.1622 54.0007 53.1622 53.9902 53.1727 53.9902C52.7647 54.4296 52.3462 54.8272 51.8963 55.2666C51.2163 55.9152 50.5258 56.5953 49.8772 57.359C48.8205 58.4889 47.5755 59.0224 45.9434 59.0224C45.7865 59.0224 45.6191 59.0224 45.4622 59.012C42.3549 58.8132 39.4674 57.5996 37.3018 56.5639C31.3802 53.6973 26.1806 49.6275 21.8598 44.4697C18.2922 40.1698 15.9069 36.1942 14.3271 31.9257C13.3541 29.3207 12.9984 27.291 13.1553 25.3765C13.26 24.1524 13.7308 23.1376 14.5991 22.2692L18.1667 18.7017C18.6793 18.2204 19.2233 17.9589 19.7569 17.9589C20.416 17.9589 20.9496 18.3564 21.2844 18.6912C21.2948 18.7017 21.3053 18.7121 21.3157 18.7226C21.9539 19.3189 22.5607 19.9362 23.1989 20.5953C23.5232 20.9301 23.858 21.2649 24.1928 21.6101L27.049 24.4663C28.1579 25.5753 28.1579 26.6005 27.049 27.7095C26.7456 28.0129 26.4526 28.3163 26.1492 28.6093C25.2704 29.509 24.4334 30.346 23.5232 31.162C23.5023 31.1829 23.4814 31.1934 23.4709 31.2143C22.5712 32.114 22.7386 32.9929 22.9269 33.5892C22.9374 33.6206 22.9478 33.652 22.9583 33.6833C23.7011 35.4828 24.7473 37.1777 26.3375 39.1969L26.348 39.2073C29.2355 42.7644 32.28 45.5369 35.6383 47.6607C36.0672 47.9327 36.5066 48.1524 36.9251 48.3616C37.3018 48.5499 37.6575 48.7278 37.9609 48.9161C38.0027 48.937 38.0446 48.9684 38.0864 48.9893C38.4421 49.1672 38.7769 49.2509 39.1222 49.2509C39.9905 49.2509 40.5345 48.7069 40.7124 48.529L44.2904 44.951C44.6461 44.5953 45.2111 44.1663 45.8702 44.1663C46.5188 44.1663 47.0524 44.5743 47.3767 44.9301C47.3872 44.9405 47.3872 44.9405 47.3976 44.951L53.1622 50.7156C54.2398 51.7827 54.2398 52.8812 53.1727 53.9902Z" fill="#2ED158"/>
<path d="M37.0403 24.0583C39.7813 24.5186 42.2713 25.8159 44.2591 27.8037C46.2469 29.7915 47.5337 32.2814 48.0045 35.0225C48.1196 35.713 48.7159 36.1942 49.3959 36.1942C49.4796 36.1942 49.5529 36.1838 49.6366 36.1733C50.4108 36.0478 50.9234 35.3154 50.7979 34.5412C50.2329 31.2248 48.6636 28.2012 46.2678 25.8054C43.872 23.4096 40.8484 21.8403 37.532 21.2753C36.7578 21.1498 36.0359 21.6624 35.8999 22.4262C35.7639 23.1899 36.2661 23.9327 37.0403 24.0583Z" fill="#2ED158"/>
<path d="M59.7637 34.1332C58.8326 28.672 56.2589 23.7025 52.3043 19.7479C48.3496 15.7932 43.3802 13.2196 37.919 12.2884C37.1552 12.1524 36.4333 12.6755 36.2973 13.4393C36.1718 14.2135 36.6844 14.9353 37.4586 15.0713C42.3339 15.8978 46.7803 18.21 50.3165 21.7357C53.8527 25.2718 56.1543 29.7182 56.9808 34.5935C57.0959 35.284 57.6922 35.7653 58.3723 35.7653C58.456 35.7653 58.5292 35.7548 58.6129 35.7444C59.3766 35.6293 59.8997 34.8969 59.7637 34.1332Z" fill="#2ED158"/>
</svg>
