<svg width="80" height="80" viewBox="0 0 80 80" fill="none" xmlns="http://www.w3.org/2000/svg">
<circle opacity="0.1" cx="34.6471" cy="38.6471" r="21.6471" fill="#FF4E48"/>
<path d="M38.287 25.1176H59.9905L67.6893 36.1134L49.1387 62.6054L30.5882 36.1134L38.287 25.1176ZM46.4988 27.0907L43.1486 34.9828H55.1289L51.7787 27.0907H46.4988ZM42.8783 36.9559L49.1387 56.2206L55.3972 36.9559H42.8803H42.8783ZM33.7885 34.9828H41.0059L44.3561 27.0907H39.313L33.7885 34.9828ZM33.5872 36.9559L47.0532 56.1871L40.8046 36.9559H33.5872ZM64.489 34.9828L58.9645 27.0907H53.9214L57.2716 34.9828H64.489ZM64.6902 36.9559H57.4729L51.2242 56.1871L64.6902 36.9559Z" fill="#FF4E48"/>
</svg>
