<svg width="80" height="80" viewBox="0 0 80 80" fill="none" xmlns="http://www.w3.org/2000/svg">
<circle opacity="0.1" cx="37.6471" cy="38.6471" r="21.6471" fill="#FF4E48"/>
<path fill-rule="evenodd" clip-rule="evenodd" d="M39.727 38.3785C41.6997 37.8938 43.6952 38.4103 45.1731 39.5985L52.601 34.3877C52.3467 33.9247 52.1485 33.4215 52.0159 32.886C51.1926 29.5369 53.2637 26.1213 56.6211 25.2979C59.9762 24.4759 63.3992 26.5439 64.224 29.8926C65.0482 33.2408 62.9771 36.6558 59.6206 37.4792C57.3888 38.0261 55.1276 37.2962 53.6193 35.7603L46.3596 40.854C46.8022 41.4758 47.1387 42.1897 47.3312 42.9727C47.78 44.7941 47.3716 46.6335 46.3663 48.0659L53.6078 52.7066C54.4369 51.7148 55.5749 50.9687 56.9216 50.6381C60.2776 49.8162 63.6997 51.8851 64.5249 55.2328C65.3496 58.5819 63.2766 61.9965 59.9201 62.8195C56.565 63.6419 53.141 61.5753 52.3158 58.2262C51.9693 56.8208 52.1333 55.4026 52.6885 54.1708L45.1665 49.3518C44.472 49.9139 43.6463 50.335 42.7255 50.5608C39.3704 51.3828 35.9474 49.3148 35.1222 45.9661C34.2974 42.6156 36.3705 39.2024 39.727 38.3785ZM40.18 40.216C42.533 39.6383 44.9093 41.0736 45.4897 43.4248C46.0673 45.7736 44.6279 48.1451 42.2739 48.7229C39.9195 49.2991 37.5417 47.8639 36.9642 45.5151C36.3847 43.1648 37.8236 40.7938 40.18 40.216ZM57.3731 52.4761C59.7276 51.8998 62.1029 53.3351 62.6829 55.6853C63.2614 58.0341 61.8225 60.4047 59.468 60.982C57.1126 61.5597 54.7359 60.1244 54.1574 57.7751C53.5784 55.4254 55.0173 53.0538 57.3731 52.4761ZM57.0732 27.1359C59.4272 26.5586 61.8044 27.9949 62.3825 30.3437C62.9614 32.6939 61.5225 35.0645 59.169 35.6418C56.8122 36.2195 54.4369 34.7832 53.8579 32.4349C53.2798 30.0837 54.7188 27.7136 57.0732 27.1359Z" fill="#FF4E48"/>
</svg>
