<svg width="80" height="80" viewBox="0 0 80 80" fill="none" xmlns="http://www.w3.org/2000/svg">
<circle opacity="0.1" cx="30.6471" cy="38.6471" r="21.6471" fill="#FF4E48"/>
<path d="M70.0958 61.5296L59.1454 39.6288C59.0805 39.4989 58.9806 39.3896 58.857 39.3132C58.7334 39.2368 58.591 39.1964 58.4458 39.1964C58.3005 39.1964 58.1581 39.2368 58.0345 39.3132C57.9109 39.3896 57.8111 39.4989 57.7461 39.6288L53.2772 48.5669C49.3105 48.4603 45.4902 47.0459 42.4105 44.5436C45.9706 41.0621 48.0637 36.3505 48.2605 31.375H53.7527C53.9602 31.375 54.1591 31.2926 54.3058 31.1459C54.4525 30.9992 54.5349 30.8003 54.5349 30.5928C54.5349 30.3854 54.4525 30.1864 54.3058 30.0398C54.1591 29.8931 53.9602 29.8107 53.7527 29.8107H42.0202V25.8998C42.0202 25.6924 41.9378 25.4934 41.7911 25.3467C41.6444 25.2001 41.4455 25.1176 41.238 25.1176C41.0306 25.1176 40.8316 25.2001 40.685 25.3467C40.5383 25.4934 40.4559 25.6924 40.4559 25.8998V29.8107H28.7233C28.5159 29.8107 28.3169 29.8931 28.1703 30.0398C28.0236 30.1864 27.9412 30.3854 27.9412 30.5928C27.9412 30.8003 28.0236 30.9992 28.1703 31.1459C28.3169 31.2926 28.5159 31.375 28.7233 31.375H46.6952C46.4971 35.9687 44.5428 40.3109 41.2357 43.5053C39.2371 41.5758 37.7143 39.2083 36.7875 36.5895C36.7182 36.394 36.5742 36.2341 36.387 36.1448C36.1999 36.0555 35.9849 36.0441 35.7894 36.1133C35.5939 36.1825 35.4338 36.3264 35.3444 36.5136C35.255 36.7007 35.2436 36.9157 35.3127 37.1112C36.3075 39.9203 37.9334 42.4637 40.0654 44.5457C36.864 47.1602 32.8566 48.5865 28.7233 48.5827C28.5159 48.5827 28.3169 48.6651 28.1703 48.8118C28.0236 48.9585 27.9412 49.1574 27.9412 49.3649C27.9412 49.5723 28.0236 49.7713 28.1703 49.918C28.3169 50.0646 28.5159 50.1471 28.7233 50.1471C33.299 50.1512 37.7299 48.5433 41.238 45.6056C44.4252 48.2594 48.3729 49.8324 52.5118 50.0976L46.7959 61.5298C46.749 61.6217 46.7208 61.7221 46.7129 61.825C46.705 61.9279 46.7175 62.0314 46.7498 62.1295C46.782 62.2275 46.8334 62.3182 46.9008 62.3963C46.9683 62.4745 47.0506 62.5384 47.1429 62.5846C47.2353 62.6308 47.3358 62.6582 47.4388 62.6654C47.5418 62.6725 47.6451 62.6591 47.743 62.6261C47.8408 62.5931 47.9311 62.541 48.0087 62.473C48.0862 62.4049 48.1496 62.3221 48.195 62.2294L51.1074 56.4044H65.7841L68.6967 62.2296C68.7895 62.4151 68.9522 62.5562 69.1491 62.6218C69.3459 62.6873 69.5607 62.672 69.7462 62.5791C69.9318 62.4863 70.0728 62.3236 70.1384 62.1267C70.2039 61.9299 70.1886 61.7151 70.0958 61.5296ZM51.8896 54.8401L58.4458 41.7278L65.0019 54.8401H51.8896Z" fill="#FF4E48" stroke="#FF4E48" stroke-width="0.4"/>
</svg>
