<svg width="80" height="80" viewBox="0 0 80 80" fill="none" xmlns="http://www.w3.org/2000/svg">
<circle opacity="0.1" cx="34.6471" cy="38.6471" r="21.6471" fill="#FF4E48"/>
<path d="M66.245 53.2017L59.6691 48.2496C59.2638 47.9488 58.764 47.8033 58.2606 47.8395C57.7572 47.8757 57.2834 48.0912 56.9252 48.447L53.6612 51.6886C53.54 51.8138 53.3846 51.9004 53.2145 51.9377C53.0443 51.9749 52.867 51.9611 52.7047 51.8979C49.8996 50.7852 47.3494 49.1147 45.2081 46.9877C43.0801 44.8471 41.4101 42.2952 40.3001 39.4878C40.237 39.3254 40.2232 39.1479 40.2604 38.9777C40.2976 38.8075 40.3842 38.652 40.5094 38.5308L43.7495 35.2833C44.1051 34.9249 44.3205 34.4509 44.3567 33.9473C44.3929 33.4436 44.2475 32.9436 43.9468 32.5381L38.9969 25.9592C38.7084 25.5735 38.2961 25.2988 37.8291 25.1812C37.3622 25.0636 36.869 25.1102 36.4323 25.3133L30.4542 28.1183C30.0425 28.3047 29.7029 28.6206 29.4871 29.0179C29.2713 29.4152 29.191 29.8721 29.2586 30.3192C29.8564 34.2486 32.0384 44.075 40.0192 52.0893C47.9999 60.1633 57.9295 62.3942 61.887 62.9922C61.9964 63.0026 62.1064 63.0026 62.2158 62.9922C62.6127 62.9938 63.0018 62.8821 63.3375 62.6703C63.6731 62.4584 63.9414 62.1551 64.1109 61.7961L66.9146 55.8153C67.1254 55.37 67.1739 54.8649 67.0516 54.3875C66.9293 53.9102 66.644 53.4907 66.245 53.2017ZM65.8027 55.2651L62.9989 61.2458C62.9198 61.4235 62.7845 61.5701 62.6137 61.6631C62.443 61.756 62.2464 61.7902 62.0544 61.7602C58.3241 61.21 49.1118 59.1586 41.4599 51.8321L41.424 51.8022C41.2208 51.6048 41.0175 51.4075 40.8262 51.2041L40.3719 50.7436L40.342 50.7137C33.0188 43.0822 30.9683 33.8598 30.4184 30.1278C30.3884 29.9357 30.4225 29.739 30.5154 29.5682C30.6084 29.3974 30.7549 29.262 30.9325 29.1829L36.9106 26.3779C37.0993 26.2913 37.3119 26.2719 37.5131 26.3231C37.7144 26.3742 37.892 26.4928 38.0165 26.659L42.9664 33.2378C43.0999 33.4134 43.165 33.6316 43.1496 33.8517C43.1342 34.0717 43.0393 34.2787 42.8827 34.434L39.6366 37.6756C39.3477 37.9626 39.1491 38.3278 39.0652 38.7263C38.9813 39.1248 39.0157 39.5392 39.1643 39.9184C40.3325 42.8798 42.0944 45.5705 44.3413 47.825C46.5962 50.0711 49.2854 51.8335 52.2444 53.0043C52.6223 53.1532 53.0357 53.1878 53.4331 53.1039C53.8306 53.0199 54.1947 52.821 54.4802 52.5318L57.7263 49.2843C57.8815 49.1276 58.0883 49.0326 58.3083 49.0172C58.5283 49.0018 58.7464 49.067 58.9219 49.2005L65.4978 54.1526C65.6694 54.2741 65.7936 54.4514 65.8492 54.6543C65.9047 54.8571 65.8883 55.073 65.8027 55.2651Z" fill="#FF4E48" stroke="#FF4E48" stroke-width="0.5"/>
<path d="M53.4997 39.4163C52.9575 38.8739 52.2221 38.5691 51.4552 38.5691C51.4294 38.5691 51.4045 38.5588 51.3861 38.5405L51.0615 38.865L51.3861 38.5405C51.3678 38.5221 51.3574 38.4971 51.3574 38.471C51.3574 38.4449 51.3678 38.42 51.3861 38.4016C51.4045 38.3832 51.4294 38.373 51.4552 38.373C52.2738 38.373 53.059 38.6983 53.6379 39.2775C54.2168 39.8567 54.5421 40.6422 54.5421 41.4614C54.5421 41.4875 54.5317 41.5125 54.5134 41.5309L54.867 41.8843L54.5134 41.5309C54.495 41.5492 54.4701 41.5595 54.4443 41.5595C54.4184 41.5595 54.3936 41.5492 54.3752 41.5309C54.3568 41.5125 54.3465 41.4875 54.3465 41.4614C54.3465 40.6944 54.0419 39.9588 53.4997 39.4163Z" fill="#1E2232" stroke="#FF4E48"/>
<path d="M54.1631 34.9214C53.3046 34.5657 52.3845 34.3826 51.4552 34.3826C51.4294 34.3826 51.4045 34.3723 51.3861 34.3539L51.0615 34.6784L51.3861 34.3539C51.3678 34.3355 51.3574 34.3106 51.3574 34.2845C51.3574 34.2584 51.3678 34.2334 51.3861 34.215C51.4045 34.1967 51.4294 34.1864 51.4552 34.1864C53.3837 34.1864 55.2332 34.9528 56.5969 36.3171C57.9606 37.6814 58.7267 39.5319 58.7267 41.4614C58.7267 41.4875 58.7164 41.5125 58.698 41.5309L59.0011 41.8338L58.698 41.5309C58.6797 41.5492 58.6548 41.5595 58.6289 41.5595C58.6031 41.5595 58.5782 41.5492 58.5599 41.5309C58.5415 41.5125 58.5311 41.4875 58.5311 41.4614C58.5311 40.5318 58.3481 39.6114 57.9925 38.7525C57.637 37.8937 57.1158 37.1133 56.4587 36.456C55.8017 35.7986 55.0216 35.2772 54.1631 34.9214Z" fill="#1E2232" stroke="#FF4E48"/>
<path d="M62.1467 41.5308L61.7931 41.8843L62.1467 41.5308C62.1283 41.5125 62.118 41.4875 62.118 41.4614C62.118 38.6323 60.9946 35.9191 58.995 33.9185C56.9954 31.918 54.2832 30.7941 51.4552 30.7941C51.4294 30.7941 51.4045 30.7838 51.3861 30.7654C51.3678 30.747 51.3574 30.7221 51.3574 30.696C51.3574 30.6699 51.3678 30.6449 51.3861 30.6265C51.4045 30.6082 51.4294 30.5979 51.4552 30.5979C54.335 30.5979 57.0968 31.7424 59.1332 33.7797C61.1695 35.8169 62.3136 38.5801 62.3136 41.4614C62.3136 41.4875 62.3032 41.5125 62.2849 41.5308C62.2665 41.5492 62.2417 41.5595 62.2158 41.5595C62.1899 41.5595 62.1651 41.5492 62.1467 41.5308Z" fill="#1E2232" stroke="#FF4E48"/>
</svg>
