<svg width="205" height="32" viewBox="0 0 205 32" fill="none" xmlns="http://www.w3.org/2000/svg">
<path d="M45.78 22.24C43.7533 22.24 42.06 21.6 40.7 20.32C39.3533 19.0267 38.68 17.3667 38.68 15.34C38.68 13.3133 39.3533 11.66 40.7 10.38C42.06 9.08667 43.7533 8.44 45.78 8.44C48.2733 8.44 50.1333 9.52667 51.36 11.7L48.92 12.9C48.6267 12.34 48.1933 11.88 47.62 11.52C47.06 11.1467 46.4467 10.96 45.78 10.96C44.5667 10.96 43.5667 11.3733 42.78 12.2C41.9933 13.0267 41.6 14.0733 41.6 15.34C41.6 16.6067 41.9933 17.6533 42.78 18.48C43.5667 19.3067 44.5667 19.72 45.78 19.72C46.4467 19.72 47.06 19.54 47.62 19.18C48.1933 18.82 48.6267 18.3533 48.92 17.78L51.36 18.96C50.0933 21.1467 48.2333 22.24 45.78 22.24ZM61.3305 22H58.7905V21C58.0971 21.8267 57.0771 22.24 55.7305 22.24C54.8638 22.24 54.0838 21.96 53.3905 21.4C52.7105 20.8267 52.3705 20.04 52.3705 19.04C52.3705 18 52.7038 17.22 53.3705 16.7C54.0505 16.18 54.8371 15.92 55.7305 15.92C57.1038 15.92 58.1238 16.3133 58.7905 17.1V15.8C58.7905 15.3067 58.5971 14.9133 58.2105 14.62C57.8238 14.3267 57.3105 14.18 56.6705 14.18C55.6171 14.18 54.6771 14.56 53.8505 15.32L52.8905 13.62C54.0371 12.6067 55.4438 12.1 57.1105 12.1C58.3505 12.1 59.3638 12.3867 60.1505 12.96C60.9371 13.5333 61.3305 14.4667 61.3305 15.76V22ZM56.7505 20.52C57.6971 20.52 58.3771 20.24 58.7905 19.68V18.48C58.3771 17.92 57.6971 17.64 56.7505 17.64C56.2305 17.64 55.7971 17.7733 55.4505 18.04C55.1038 18.2933 54.9305 18.6467 54.9305 19.1C54.9305 19.54 55.1038 19.8867 55.4505 20.14C55.7971 20.3933 56.2305 20.52 56.7505 20.52ZM66.3898 22H63.8498V8.66H66.3898V22ZM71.4484 22H68.9084V8.66H71.4484V22ZM89.9442 22H86.6842L84.0642 17.26H81.9842V22H79.1442V8.66H85.3842C86.7576 8.66 87.8442 9.06 88.6442 9.86C89.4576 10.66 89.8642 11.6933 89.8642 12.96C89.8642 14.0533 89.5776 14.94 89.0042 15.62C88.4442 16.3 87.7576 16.7333 86.9442 16.92L89.9442 22ZM84.9642 14.76C85.5509 14.76 86.0309 14.6 86.4042 14.28C86.7776 13.9467 86.9642 13.5067 86.9642 12.96C86.9642 12.4133 86.7776 11.98 86.4042 11.66C86.0309 11.3267 85.5509 11.16 84.9642 11.16H81.9842V14.76H84.9642ZM95.8703 22.24C94.377 22.24 93.1436 21.7733 92.1703 20.84C91.197 19.9067 90.7103 18.68 90.7103 17.16C90.7103 15.7333 91.177 14.5333 92.1103 13.56C93.057 12.5867 94.257 12.1 95.7103 12.1C97.1503 12.1 98.317 12.5933 99.2103 13.58C100.104 14.5533 100.55 15.8333 100.55 17.42V17.98H93.3703C93.4503 18.62 93.737 19.1533 94.2303 19.58C94.7236 20.0067 95.3636 20.22 96.1503 20.22C96.577 20.22 97.037 20.1333 97.5303 19.96C98.037 19.7867 98.437 19.5533 98.7303 19.26L99.8503 20.9C98.877 21.7933 97.5503 22.24 95.8703 22.24ZM98.0903 16.26C98.0503 15.7133 97.8303 15.22 97.4303 14.78C97.0436 14.34 96.4703 14.12 95.7103 14.12C94.9903 14.12 94.4303 14.34 94.0303 14.78C93.6303 15.2067 93.397 15.7 93.3303 16.26H98.0903ZM106.885 22.24C105.392 22.24 104.165 21.7667 103.205 20.82C102.245 19.8733 101.765 18.6533 101.765 17.16C101.765 15.68 102.245 14.4667 103.205 13.52C104.165 12.5733 105.392 12.1 106.885 12.1C108.592 12.1 109.865 12.68 110.705 13.84L109.045 15.4C108.578 14.7067 107.898 14.36 107.005 14.36C106.232 14.36 105.598 14.62 105.105 15.14C104.625 15.6467 104.385 16.32 104.385 17.16C104.385 18 104.625 18.68 105.105 19.2C105.598 19.72 106.232 19.98 107.005 19.98C107.872 19.98 108.552 19.6333 109.045 18.94L110.705 20.48C109.865 21.6533 108.592 22.24 106.885 22.24ZM120.565 20.78C119.632 21.7533 118.392 22.24 116.845 22.24C115.299 22.24 114.059 21.7533 113.125 20.78C112.205 19.7933 111.745 18.5867 111.745 17.16C111.745 15.7333 112.205 14.5333 113.125 13.56C114.059 12.5867 115.299 12.1 116.845 12.1C118.392 12.1 119.632 12.5867 120.565 13.56C121.499 14.5333 121.965 15.7333 121.965 17.16C121.965 18.5867 121.499 19.7933 120.565 20.78ZM115.045 19.18C115.485 19.7133 116.085 19.98 116.845 19.98C117.605 19.98 118.205 19.7133 118.645 19.18C119.099 18.6333 119.325 17.96 119.325 17.16C119.325 16.3733 119.099 15.7133 118.645 15.18C118.205 14.6333 117.605 14.36 116.845 14.36C116.085 14.36 115.485 14.6333 115.045 15.18C114.605 15.7133 114.385 16.3733 114.385 17.16C114.385 17.96 114.605 18.6333 115.045 19.18ZM126.39 22H123.85V12.34H126.39V13.66C126.75 13.2067 127.21 12.8333 127.77 12.54C128.33 12.2467 128.897 12.1 129.47 12.1V14.58C129.297 14.54 129.063 14.52 128.77 14.52C128.343 14.52 127.89 14.6267 127.41 14.84C126.93 15.0533 126.59 15.3133 126.39 15.62V22ZM140.257 22H137.697V20.76C136.91 21.7467 135.917 22.24 134.717 22.24C133.464 22.24 132.437 21.7933 131.637 20.9C130.837 19.9933 130.437 18.7533 130.437 17.18C130.437 15.6333 130.837 14.4 131.637 13.48C132.437 12.56 133.464 12.1 134.717 12.1C135.944 12.1 136.937 12.5933 137.697 13.58V8.66H140.257V22ZM135.497 19.98C135.924 19.98 136.344 19.88 136.757 19.68C137.17 19.4667 137.484 19.2 137.697 18.88V15.46C137.484 15.14 137.17 14.88 136.757 14.68C136.344 14.4667 135.924 14.36 135.497 14.36C134.777 14.36 134.19 14.62 133.737 15.14C133.284 15.66 133.057 16.34 133.057 17.18C133.057 18.0067 133.284 18.68 133.737 19.2C134.19 19.72 134.777 19.98 135.497 19.98ZM147.316 22.24C145.822 22.24 144.589 21.7733 143.616 20.84C142.642 19.9067 142.156 18.68 142.156 17.16C142.156 15.7333 142.622 14.5333 143.556 13.56C144.502 12.5867 145.702 12.1 147.156 12.1C148.596 12.1 149.762 12.5933 150.656 13.58C151.549 14.5533 151.996 15.8333 151.996 17.42V17.98H144.816C144.896 18.62 145.182 19.1533 145.676 19.58C146.169 20.0067 146.809 20.22 147.596 20.22C148.022 20.22 148.482 20.1333 148.976 19.96C149.482 19.7867 149.882 19.5533 150.176 19.26L151.296 20.9C150.322 21.7933 148.996 22.24 147.316 22.24ZM149.536 16.26C149.496 15.7133 149.276 15.22 148.876 14.78C148.489 14.34 147.916 14.12 147.156 14.12C146.436 14.12 145.876 14.34 145.476 14.78C145.076 15.2067 144.842 15.7 144.776 16.26H149.536ZM156.37 22H153.83V12.34H156.37V13.66C156.73 13.2067 157.19 12.8333 157.75 12.54C158.31 12.2467 158.877 12.1 159.45 12.1V14.58C159.277 14.54 159.044 14.52 158.75 14.52C158.324 14.52 157.87 14.6267 157.39 14.84C156.91 15.0533 156.57 15.3133 156.37 15.62V22ZM167.415 11.3C167.001 11.3 166.641 11.1533 166.335 10.86C166.041 10.5533 165.895 10.1933 165.895 9.78C165.895 9.36667 166.041 9.01333 166.335 8.72C166.641 8.42667 167.001 8.28 167.415 8.28C167.841 8.28 168.201 8.42667 168.495 8.72C168.788 9.01333 168.935 9.36667 168.935 9.78C168.935 10.1933 168.788 10.5533 168.495 10.86C168.201 11.1533 167.841 11.3 167.415 11.3ZM168.695 22H166.155V12.34H168.695V22ZM177.733 22.24C175.706 22.24 174.013 21.6 172.653 20.32C171.306 19.0267 170.633 17.3667 170.633 15.34C170.633 13.3133 171.306 11.66 172.653 10.38C174.013 9.08667 175.706 8.44 177.733 8.44C180.226 8.44 182.086 9.52667 183.313 11.7L180.873 12.9C180.58 12.34 180.146 11.88 179.573 11.52C179.013 11.1467 178.4 10.96 177.733 10.96C176.52 10.96 175.52 11.3733 174.733 12.2C173.946 13.0267 173.553 14.0733 173.553 15.34C173.553 16.6067 173.946 17.6533 174.733 18.48C175.52 19.3067 176.52 19.72 177.733 19.72C178.4 19.72 179.013 19.54 179.573 19.18C180.146 18.82 180.58 18.3533 180.873 17.78L183.313 18.96C182.046 21.1467 180.186 22.24 177.733 22.24ZM193.284 22H190.744V21C190.05 21.8267 189.03 22.24 187.684 22.24C186.817 22.24 186.037 21.96 185.344 21.4C184.664 20.8267 184.324 20.04 184.324 19.04C184.324 18 184.657 17.22 185.324 16.7C186.004 16.18 186.79 15.92 187.684 15.92C189.057 15.92 190.077 16.3133 190.744 17.1V15.8C190.744 15.3067 190.55 14.9133 190.164 14.62C189.777 14.3267 189.264 14.18 188.624 14.18C187.57 14.18 186.63 14.56 185.804 15.32L184.844 13.62C185.99 12.6067 187.397 12.1 189.064 12.1C190.304 12.1 191.317 12.3867 192.104 12.96C192.89 13.5333 193.284 14.4667 193.284 15.76V22ZM188.704 20.52C189.65 20.52 190.33 20.24 190.744 19.68V18.48C190.33 17.92 189.65 17.64 188.704 17.64C188.184 17.64 187.75 17.7733 187.404 18.04C187.057 18.2933 186.884 18.6467 186.884 19.1C186.884 19.54 187.057 19.8867 187.404 20.14C187.75 20.3933 188.184 20.52 188.704 20.52ZM198.343 22H195.803V8.66H198.343V22ZM203.402 22H200.862V8.66H203.402V22Z" fill="black"/>
<path d="M8.65449 31.9039H7.07652L6.1794 30.1097H5.47452V31.9039H4.0968V26.5613H6.77214C7.34886 26.5613 7.80276 26.7295 8.13384 27.0659C8.46492 27.4023 8.63046 27.8268 8.63046 28.3395C8.63046 28.7667 8.52366 29.1164 8.31006 29.3888C8.1018 29.6558 7.85349 29.84 7.56513 29.9415L8.65449 31.9039ZM6.56388 28.9082C6.75078 28.9082 6.90831 28.8575 7.03647 28.756C7.16463 28.6545 7.22871 28.513 7.22871 28.3315C7.22871 28.1552 7.16463 28.0164 7.03647 27.9149C6.90831 27.8135 6.75078 27.7628 6.56388 27.7628H5.47452V28.9082H6.56388Z" fill="black"/>
<path d="M13.3094 31.9039H9.39247V26.5613H13.3094V27.7628H10.7702V28.5958H13.2533V29.7973H10.7702V30.7024H13.3094V31.9039Z" fill="black"/>
<path d="M16.7286 32C15.9009 32 15.212 31.7437 14.662 31.2311C14.112 30.7131 13.837 30.0483 13.837 29.2366C13.837 28.4196 14.1093 27.7547 14.654 27.2421C15.204 26.7295 15.8955 26.4731 16.7286 26.4731C17.8019 26.4731 18.5789 26.9511 19.0595 27.9069L17.874 28.4676C17.7832 28.2487 17.631 28.0645 17.4174 27.9149C17.2092 27.7654 16.9795 27.6907 16.7286 27.6907C16.296 27.6907 15.9382 27.8402 15.6552 28.1392C15.3775 28.4329 15.2387 28.7987 15.2387 29.2366C15.2387 29.6745 15.3775 30.0429 15.6552 30.342C15.9382 30.6357 16.296 30.7825 16.7286 30.7825C16.9795 30.7825 17.2092 30.7078 17.4174 30.5582C17.631 30.4087 17.7832 30.2245 17.874 30.0056L19.0595 30.5663C18.8565 30.9721 18.5628 31.3139 18.1784 31.5915C17.7992 31.8639 17.316 32 16.7286 32Z" fill="black"/>
<circle cx="11.5387" cy="11.5387" r="11.0721" stroke="url(#paint0_linear)" stroke-width="0.933203"/>
<circle cx="11.5484" cy="11.5483" r="6.96014" fill="url(#paint1_linear)"/>
<defs>
<linearGradient id="paint0_linear" x1="-0.515695" y1="11.5064" x2="23.0773" y2="11.5064" gradientUnits="userSpaceOnUse">
<stop stop-color="#FF3F39"/>
<stop offset="1" stop-color="#FE5C2B"/>
</linearGradient>
<linearGradient id="paint1_linear" x1="4.27719" y1="11.5288" x2="18.5085" y2="11.5288" gradientUnits="userSpaceOnUse">
<stop stop-color="#FF3F39"/>
<stop offset="1" stop-color="#FE5C2B"/>
</linearGradient>
</defs>
</svg>
