<svg width="35" height="35" viewBox="0 0 35 35" fill="none" xmlns="http://www.w3.org/2000/svg">
<circle cx="17.2558" cy="17.0737" r="16.5732" stroke="white"/>
<path d="M20.8126 9.95996H13.6988C11.7343 9.95996 10.1418 11.5524 10.1418 13.5169V20.6307C10.1418 22.5951 11.7343 24.1876 13.6988 24.1876H20.8126C22.777 24.1876 24.3695 22.5951 24.3695 20.6307V13.5169C24.3695 11.5524 22.777 9.95996 20.8126 9.95996Z" stroke="white" stroke-linecap="round" stroke-linejoin="round"/>
<path d="M20.1014 16.6253C20.1892 17.2173 20.0881 17.822 19.8125 18.3532C19.5368 18.8845 19.1006 19.3153 18.566 19.5844C18.0314 19.8535 17.4255 19.9472 16.8346 19.8521C16.2437 19.757 15.6978 19.478 15.2746 19.0548C14.8514 18.6316 14.5724 18.0857 14.4773 17.4947C14.3822 16.9038 14.4759 16.298 14.745 15.7634C15.0141 15.2287 15.4449 14.7926 15.9761 14.5169C16.5074 14.2413 17.112 14.1401 17.7041 14.2279C18.308 14.3175 18.8671 14.5989 19.2988 15.0306C19.7305 15.4623 20.0119 16.0214 20.1014 16.6253Z" stroke="white" stroke-linecap="round" stroke-linejoin="round"/>
<path d="M21.1685 13.1611H21.1756" stroke="white" stroke-linecap="round" stroke-linejoin="round"/>
</svg>
