<svg width="36" height="36" viewBox="0 0 36 36" fill="none" xmlns="http://www.w3.org/2000/svg">
<rect x="1" y="1" width="34" height="34" rx="7" fill="#0091FF"/>
<rect x="6" y="6" width="24" height="24" rx="7" fill="#F2F3FA"/>
<path d="M18 2.25C9.29953 2.25 2.25 9.29953 2.25 18C2.25 26.7005 9.29953 33.75 18 33.75C26.7005 33.75 33.75 26.7005 33.75 18C33.75 9.29953 26.7005 2.25 18 2.25ZM12.0234 24.8829C11.9268 25.0477 11.7884 25.1842 11.6223 25.2787C11.4562 25.3731 11.2681 25.4221 11.077 25.4208C10.8823 25.4225 10.6909 25.3699 10.5244 25.2689C10.4004 25.1971 10.2918 25.1014 10.2049 24.9875C10.1179 24.8736 10.0543 24.7436 10.0177 24.605C9.98116 24.4665 9.9723 24.322 9.99167 24.18C10.011 24.038 10.0583 23.9013 10.1306 23.7776L11.2057 21.9902C11.26 21.898 11.3375 21.8215 11.4305 21.7685C11.5235 21.7155 11.6288 21.6877 11.7359 21.6879H11.8948C12.6745 21.6879 13.2202 22.1569 13.3791 22.6111L12.0234 24.8829ZM21.1254 21.3673L14.085 21.375H9.4057C9.25848 21.3756 9.11267 21.3463 8.9771 21.2889C8.84154 21.2315 8.71906 21.1471 8.61708 21.0409C8.5151 20.9347 8.43576 20.809 8.38386 20.6712C8.33196 20.5334 8.30858 20.3865 8.31516 20.2395C8.33766 19.6488 8.85305 19.2016 9.44016 19.2016H12.832L16.8532 12.3567L15.551 10.1384C15.2578 9.63281 15.3879 8.96625 15.8906 8.64844C16.0146 8.56828 16.1534 8.51402 16.2989 8.4889C16.4443 8.46379 16.5934 8.46835 16.737 8.50231C16.8806 8.53626 17.0159 8.59892 17.1347 8.6865C17.2536 8.77408 17.3534 8.88478 17.4284 9.01195L18.1245 10.2009H18.1322L18.829 9.01195C18.904 8.88544 19.0037 8.77534 19.1222 8.68819C19.2407 8.60105 19.3755 8.53865 19.5186 8.50473C19.6617 8.47081 19.8102 8.46605 19.9552 8.49074C20.1002 8.51543 20.2387 8.56906 20.3625 8.64844C20.8624 8.96625 20.9911 9.63281 20.6958 10.1405L19.3936 12.3588L18.128 14.5167L15.3795 19.2038V19.2115H19.4302C19.9378 19.2115 20.5741 19.4843 20.8315 19.923L20.854 19.9688C21.0811 20.3548 21.2098 20.6198 21.2098 21.0059C21.2061 21.1312 21.1781 21.2546 21.1275 21.3694L21.1254 21.3673ZM26.5922 21.375H24.686V21.3827L26.0796 23.753C26.2295 24.0026 26.2754 24.3011 26.2074 24.5842C26.1394 24.8673 25.963 25.1124 25.7161 25.2668C25.545 25.3711 25.3484 25.4264 25.148 25.4264C24.9574 25.4263 24.7701 25.3769 24.6043 25.2831C24.4384 25.1892 24.2997 25.054 24.2016 24.8906L22.1421 21.3848L20.8624 19.2052L19.2115 16.3828C18.9724 15.9798 18.8424 15.5215 18.8344 15.0529C18.8264 14.5844 18.9406 14.1219 19.1658 13.7109C19.492 13.1351 19.7416 12.9839 19.7416 12.9839L23.4141 19.1953H26.5718C27.1624 19.1953 27.6694 19.6495 27.6968 20.2324C27.7025 20.3806 27.6782 20.5284 27.6253 20.667C27.5724 20.8055 27.4921 20.932 27.3891 21.0387C27.2861 21.1454 27.1626 21.2302 27.026 21.288C26.8895 21.3458 26.7426 21.3754 26.5943 21.375H26.5922Z" fill="#0091FF"/>
</svg>
