<svg width="56" height="64" viewBox="0 0 56 64" fill="none" xmlns="http://www.w3.org/2000/svg">
<circle opacity="0.2" cx="31.3462" cy="24.1793" r="24.0161" fill="#908F9D"/>
<path d="M37 29.334C40.866 29.334 44 26.1999 44 22.334C44 18.468 40.866 15.334 37 15.334C33.134 15.334 30 18.468 30 22.334C30 26.1999 33.134 29.334 37 29.334Z" stroke="#2ED158" stroke-width="3" stroke-linecap="round" stroke-linejoin="round"/>
<path d="M9 45.6674C12.866 45.6674 16 42.5334 16 38.6674C16 34.8015 12.866 31.6674 9 31.6674C5.13401 31.6674 2 34.8015 2 38.6674C2 42.5334 5.13401 45.6674 9 45.6674Z" stroke="#2ED158" stroke-width="3" stroke-linecap="round" stroke-linejoin="round"/>
<path d="M37 62.0005C40.866 62.0005 44 58.8664 44 55.0005C44 51.1345 40.866 48.0005 37 48.0005C33.134 48.0005 30 51.1345 30 55.0005C30 58.8664 33.134 62.0005 37 62.0005Z" stroke="#2ED158" stroke-width="3" stroke-linecap="round" stroke-linejoin="round"/>
<path d="M15.043 42.1904L30.9796 51.4771" stroke="#2ED158" stroke-width="3" stroke-linecap="round" stroke-linejoin="round"/>
<path d="M30.9563 25.8569L15.043 35.1436" stroke="#2ED158" stroke-width="3" stroke-linecap="round" stroke-linejoin="round"/>
</svg>
