<svg width="35" height="35" viewBox="0 0 35 35" fill="none" xmlns="http://www.w3.org/2000/svg">
<circle cx="17.5485" cy="17.0737" r="16.5732" stroke="white"/>
<path d="M27.3354 11.1305C26.5768 11.6656 25.7369 12.0749 24.848 12.3425C24.3709 11.794 23.7369 11.4052 23.0316 11.2287C22.3264 11.0522 21.5839 11.0966 20.9047 11.3559C20.2255 11.6151 19.6423 12.0767 19.234 12.6782C18.8257 13.2797 18.6119 13.9921 18.6217 14.719V15.5111C17.2296 15.5472 15.8501 15.2385 14.6062 14.6124C13.3623 13.9863 12.2926 13.0623 11.4923 11.9227C11.4923 11.9227 8.32365 19.0521 15.453 22.2207C13.8216 23.3281 11.8782 23.8834 9.90796 23.805C17.0374 27.7658 25.7511 23.805 25.7511 14.6952C25.7503 14.4746 25.7291 14.2545 25.6877 14.0377C26.4962 13.2404 27.0667 12.2338 27.3354 11.1305Z" stroke="white" stroke-linecap="round" stroke-linejoin="round"/>
</svg>
