<svg width="51" height="51" viewBox="0 0 51 51" fill="none" xmlns="http://www.w3.org/2000/svg">
<circle cx="25.2837" cy="25.5117" r="25" fill="white"/>
<path d="M35.2837 24.5917V25.5117C35.2825 27.6681 34.5842 29.7664 33.293 31.4935C32.0019 33.2207 30.187 34.4842 28.119 35.0956C26.0511 35.707 23.841 35.6336 21.8182 34.8863C19.7954 34.139 18.0683 32.7578 16.8947 30.9488C15.721 29.1397 15.1635 26.9998 15.3054 24.848C15.4473 22.6963 16.2809 20.648 17.682 19.0088C19.083 17.3695 20.9765 16.2271 23.0799 15.7519C25.1833 15.2766 27.384 15.494 29.3537 16.3717" stroke="#1B1B20" stroke-width="2" stroke-linecap="round" stroke-linejoin="round"/>
<path d="M35.2837 17.5117L25.2837 27.5217L22.2837 24.5217" stroke="#1B1B20" stroke-width="2" stroke-linecap="round" stroke-linejoin="round"/>
</svg>
